<svg width="21" height="22" viewBox="0 0 21 22" fill="none" xmlns="http://www.w3.org/2000/svg">
<path d="M4.4847 16.1559C3.25853 14.9138 1.15089 16.0005 0.788119 14.3076C0.425349 12.6147 2.72921 12.9408 3.74539 11.3503C4.76156 9.75988 3.86017 7.23918 5.59368 6.54477C7.32719 5.85037 7.92245 8.40664 9.65992 8.76272C11.3974 9.11881 12.9297 7.07215 14.0958 8.39306C15.2619 9.71398 12.9234 11.0242 12.9869 12.829C13.0503 14.6337 15.4926 15.8085 14.4655 17.2649C13.4383 18.7213 11.702 16.9867 10.0296 17.6345C8.35715 18.2824 8.14202 21.0358 6.333 20.5918C4.52398 20.1478 5.71088 17.398 4.4847 16.1559Z" stroke="#00BCFF" stroke-width="1.5"/>
<path d="M16.6834 9.13249V1M12.6172 5.06624H20.7497" stroke="#DC5757" stroke-width="3"/>
</svg>
