<svg width="20" height="20" viewBox="0 0 20 20" fill="none" xmlns="http://www.w3.org/2000/svg">
<path d="M9.09091 6.36364C9.09091 5.86156 9.49791 5.45455 10 5.45455C10.5021 5.45455 10.9091 5.86156 10.9091 6.36364V9.09091H13.6364C14.1385 9.09091 14.5455 9.49791 14.5455 10C14.5455 10.5021 14.1385 10.9091 13.6364 10.9091H10.9091V13.6364C10.9091 14.1385 10.5021 14.5455 10 14.5455C9.49791 14.5455 9.09091 14.1385 9.09091 13.6364V10.9091H6.36364C5.86155 10.9091 5.45455 10.5021 5.45455 10C5.45455 9.49791 5.86156 9.09091 6.36364 9.09091H9.09091V6.36364Z" fill="#61758A"/>
<path fill-rule="evenodd" clip-rule="evenodd" d="M20 10C20 15.5228 15.5228 20 10 20C4.47715 20 0 15.5228 0 10C0 4.47715 4.47715 0 10 0C15.5228 0 20 4.47715 20 10ZM1.82439 10C1.82439 14.5153 5.48474 18.1756 10 18.1756C14.5153 18.1756 18.1756 14.5153 18.1756 10C18.1756 5.48474 14.5153 1.82439 10 1.82439C5.48474 1.82439 1.82439 5.48474 1.82439 10Z" fill="#61758A"/>
</svg>
