<svg width="20" height="20" viewBox="0 0 20 20" fill="none" xmlns="http://www.w3.org/2000/svg">
<path d="M19.6833 9.23203L15.8468 5.39626C15.6409 5.19057 15.3661 5.0774 15.0731 5.0774C14.78 5.0774 14.5054 5.19057 14.2995 5.39626L13.6441 6.05187C13.4382 6.25772 13.3248 6.53236 13.3248 6.8252C13.3248 7.11821 13.4382 7.39772 13.6441 7.60374L14.4731 8.4374H6.72446C6.12122 8.4374 5.6289 8.91805 5.6289 9.52098V10.4478C5.6289 11.0507 6.12122 11.5623 6.72446 11.5623H14.5207L13.6457 12.4265C13.4396 12.6325 13.3263 12.9018 13.3263 13.1948C13.3263 13.4876 13.4396 13.7597 13.6457 13.9655L14.3012 14.6193C14.5071 14.8254 14.7818 14.9381 15.0747 14.9381C15.3678 14.9384 15.6425 14.8244 15.8484 14.6185L19.6833 10.7842C19.8899 10.5777 20.0032 10.302 20.0024 10.0086C20.0032 9.71431 19.8899 9.43854 19.6833 9.23203Z" fill="#61758A"/>
<path d="M10.799 3.12504C10.874 3.59382 11.331 4.0626 11.8823 4.0626H12.8092C13.4079 4.0626 13.912 3.56228 13.912 2.96358V1.5652C13.912 0.703577 13.2126 0 12.3509 0H1.57194C0.709936 0 0.00244141 0.703577 0.00244141 1.5652V18.4312C0.00244141 19.2927 0.710099 20 1.57194 20H12.3509C13.2126 20 13.912 19.2925 13.912 18.4312V17.025C13.912 16.4263 13.4078 15.9376 12.8092 15.9376H11.8823C11.3287 15.9376 10.8692 16.4063 10.7978 16.8751H3.12827V3.12504H10.799Z" fill="#61758A"/>
</svg>
