<svg width="22" height="22" viewBox="0 0 22 22" fill="none" xmlns="http://www.w3.org/2000/svg">
<path d="M6.00499 14.4407C4.27971 12.6931 1.31417 14.2221 0.803734 11.8401C0.293301 9.45804 3.53494 9.9169 4.96474 7.67906C6.39454 5.44122 5.12624 1.89448 7.56537 0.917425C10.0045 -0.0596324 10.8421 3.53715 13.2868 4.03818C15.7314 4.53921 17.8875 1.65947 19.5283 3.51805C21.169 5.37664 17.8786 7.22024 17.9679 9.75956C18.0571 12.2989 21.4936 13.9518 20.0484 16.0011C18.6031 18.0503 16.1601 15.6097 13.8069 16.5212C11.4537 17.4327 11.151 21.3069 8.60562 20.6822C6.06025 20.0575 7.73027 16.1883 6.00499 14.4407Z" stroke="#00BCFF" stroke-width="1.5"/>
</svg>
