<svg width="20" height="20" viewBox="0 0 20 20" fill="none" xmlns="http://www.w3.org/2000/svg">
<path d="M3.05439 11.1628L2.62503 11.6621L3.06516 12.1495L3.49452 11.6499L3.05439 11.1628ZM18.7704 10C18.7704 14.7522 15.3757 18.6047 11.1881 18.6047V20C16.0547 20 20 15.5228 20 10H18.7704ZM3.60576 10C3.60576 5.24778 7.00048 1.39535 11.1881 1.39535V0C6.32141 0 2.37619 4.47715 2.37619 10H3.60576ZM11.1881 1.39535C15.3757 1.39535 18.7704 5.24778 18.7704 10H20C20 4.47715 16.0547 0 11.1881 0V1.39535ZM3.66445 11.0765C3.62574 10.7241 3.60576 10.3649 3.60576 10H2.37619C2.37619 10.4227 2.39934 10.8397 2.44433 11.2491L3.66445 11.0765ZM11.1881 18.6047C8.58254 18.6047 6.28363 17.1138 4.91779 14.8397L3.90176 15.6255C5.48683 18.2647 8.1588 20 11.1881 20V18.6047ZM3.49452 11.6499L5.99271 8.74291L5.11244 7.76872L2.61427 10.6757L3.49452 11.6499ZM3.48377 10.6635L0.858751 7.75651L0 8.75512L2.62503 11.6621L3.48377 10.6635Z" fill="#61758A"/>
</svg>
