<svg width="20" height="20" viewBox="0 0 20 20" fill="none" xmlns="http://www.w3.org/2000/svg">
<path d="M10.125 7.5C10.125 7.33424 10.0592 7.17527 9.94194 7.05806C9.82473 6.94085 9.66576 6.875 9.5 6.875C9.33424 6.875 9.17527 6.94085 9.05806 7.05806C8.94085 7.17527 8.875 7.33424 8.875 7.5L8.875 9.375L7 9.375C6.83424 9.375 6.67527 9.44085 6.55806 9.55806C6.44085 9.67527 6.375 9.83424 6.375 10C6.375 10.1658 6.44085 10.3247 6.55806 10.4419C6.67527 10.5592 6.83424 10.625 7 10.625L8.875 10.625L8.875 12.5C8.875 12.6658 8.94085 12.8247 9.05806 12.9419C9.17527 13.0592 9.33424 13.125 9.5 13.125C9.66576 13.125 9.82473 13.0592 9.94194 12.9419C10.0592 12.8247 10.125 12.6658 10.125 12.5L10.125 10.625L12 10.625C12.1658 10.625 12.3247 10.5592 12.4419 10.4419C12.5592 10.3247 12.625 10.1658 12.625 10C12.625 9.83424 12.5592 9.67527 12.4419 9.55806C12.3247 9.44085 12.1658 9.375 12 9.375L10.125 9.375L10.125 7.5Z" fill="#61758A"/>
<path d="M2 2.5C2 1.83696 2.26339 1.20107 2.73223 0.732233C3.20107 0.263392 3.83696 8.11072e-10 4.5 1.10382e-09L14.5 5.51912e-09C15.163 5.81187e-09 15.7989 0.263392 16.2678 0.732233C16.7366 1.20107 17 1.83696 17 2.5L17 17.5C17 18.163 16.7366 18.7989 16.2678 19.2678C15.7989 19.7366 15.163 20 14.5 20L4.5 20C3.83696 20 3.20107 19.7366 2.73223 19.2678C2.26339 18.7989 2 18.163 2 17.5L2 2.5ZM14.5 1.25L4.5 1.25C4.16848 1.25 3.85054 1.3817 3.61612 1.61612C3.3817 1.85054 3.25 2.16848 3.25 2.5L3.25 17.5C3.25 17.8315 3.3817 18.1495 3.61612 18.3839C3.85054 18.6183 4.16848 18.75 4.5 18.75L14.5 18.75C14.8315 18.75 15.1495 18.6183 15.3839 18.3839C15.6183 18.1495 15.75 17.8315 15.75 17.5L15.75 2.5C15.75 2.16848 15.6183 1.85054 15.3839 1.61612C15.1495 1.3817 14.8315 1.25 14.5 1.25Z" fill="#61758A"/>
</svg>
