<svg width="20" height="20" viewBox="0 0 20 20" fill="none" xmlns="http://www.w3.org/2000/svg">
<path d="M10.6469 1.27359C10.4327 1.25778 10.218 1.24986 10.0032 1.24984V3.51779e-07C10.2489 0.000120121 10.4944 0.00929186 10.7394 0.0274969L10.6469 1.27359ZM13.1517 1.83602C12.7511 1.68141 12.3396 1.5565 11.9206 1.46232L12.1943 0.24247C12.6743 0.349957 13.1434 0.492439 13.6017 0.669917L13.1517 1.83602ZM14.8641 2.72341C14.6854 2.60423 14.5024 2.49166 14.3154 2.38595L14.9316 1.29859C15.359 1.54063 15.768 1.81384 16.1553 2.11599L15.3866 3.10211C15.2171 2.96992 15.0428 2.84402 14.8641 2.72466V2.72341ZM17.1564 4.96063C16.9092 4.60942 16.6364 4.2769 16.3403 3.96575L17.2452 3.10336C17.5835 3.46082 17.8947 3.83994 18.1789 4.24072L17.1564 4.96063ZM18.0864 6.65042C18.0044 6.45223 17.9152 6.25712 17.8189 6.06549L18.9351 5.50306C19.1557 5.94191 19.3437 6.39642 19.4975 6.86289L18.3101 7.25409C18.243 7.05019 18.1683 6.84883 18.0864 6.65042ZM18.7488 9.78378C18.7387 9.35426 18.6969 8.92607 18.6238 8.50269L19.855 8.29021C19.9383 8.77349 19.9867 9.26093 20 9.75253L18.7488 9.78378ZM18.5851 11.706C18.6268 11.4944 18.6605 11.2819 18.6863 11.0686L19.9275 11.2223C19.8673 11.7099 19.7712 12.1924 19.64 12.6659L18.4351 12.3322C18.4926 12.1264 18.5426 11.9177 18.5851 11.706ZM17.3952 14.6794C17.6252 14.3161 17.8277 13.9378 18.0026 13.5446L19.1451 14.0507C18.9451 14.5007 18.7138 14.9331 18.4514 15.3481L17.3952 14.6794ZM16.1903 16.1855C16.3428 16.033 16.4886 15.8755 16.6277 15.713L17.5752 16.5292C17.4148 16.7153 17.2476 16.8954 17.074 17.0691L16.1903 16.1855Z" fill="#61758A"/>
<path d="M10.0032 1.24984C8.5644 1.24995 7.14783 1.60486 5.87896 2.28314C4.61009 2.96142 3.52809 3.94213 2.72878 5.13842C1.92948 6.3347 1.43755 7.70964 1.29656 9.14143C1.15557 10.5732 1.36987 12.0177 1.92049 13.3469C2.47111 14.6761 3.34105 15.849 4.45325 16.7617C5.56545 17.6744 6.88559 18.2988 8.29674 18.5795C9.70789 18.8602 11.1665 18.7886 12.5433 18.371C13.9202 17.9534 15.1728 17.2028 16.1903 16.1855L17.074 17.0691C15.9112 18.2324 14.4795 19.091 12.9055 19.5688C11.3316 20.0466 9.66419 20.1288 8.05092 19.8081C6.43765 19.4875 4.92838 18.7739 3.65683 17.7306C2.38529 16.6872 1.39073 15.3464 0.761269 13.8269C0.131812 12.3073 -0.113104 10.656 0.048219 9.01921C0.209542 7.3824 0.772125 5.81065 1.68612 4.44322C2.60012 3.07579 3.8373 1.95489 5.28807 1.17986C6.73883 0.404818 8.35837 -0.000435861 10.0032 3.51779e-07V1.24984Z" fill="#61758A"/>
<path d="M9.37825 3.74953C9.544 3.74953 9.70296 3.81537 9.82016 3.93257C9.93736 4.04976 10.0032 4.20871 10.0032 4.37445V10.8861L14.0629 13.2058C14.2026 13.2901 14.3039 13.4257 14.3449 13.5837C14.386 13.7416 14.3637 13.9093 14.2827 14.051C14.2017 14.1927 14.0686 14.2971 13.9117 14.3419C13.7547 14.3867 13.5865 14.3683 13.443 14.2907L9.06827 11.791C8.97262 11.7364 8.89311 11.6574 8.83779 11.5622C8.78248 11.4669 8.75333 11.3587 8.75329 11.2486V4.37445C8.75329 4.20871 8.81913 4.04976 8.93634 3.93257C9.05354 3.81537 9.2125 3.74953 9.37825 3.74953Z" fill="#61758A"/>
</svg>
