<svg width="21" height="20" viewBox="0 0 21 20" fill="none" xmlns="http://www.w3.org/2000/svg">
<path d="M20.5 10C20.5 6.22876 20.5 4.34315 19.3284 3.17157C18.1569 2 16.2712 2 12.5 2H8.5C4.72876 2 2.84315 2 1.67157 3.17157C0.5 4.34315 0.5 6.22876 0.5 10C0.5 13.7712 0.5 15.6569 1.67157 16.8284C2.84315 18 4.72876 18 8.5 18H12.5C16.2712 18 18.1569 18 19.3284 16.8284C19.9816 16.1752 20.2706 15.3001 20.3985 14M8.5 14H4.5M12.5 14H11M0.5 8H5.5M20.5 8H9.5" stroke="#61758A" stroke-linecap="round"/>
</svg>
