<svg width="20" height="20" viewBox="0 0 20 20" fill="none" xmlns="http://www.w3.org/2000/svg">
<path d="M0.000952336 14.2403C0.014285 13.907 0.140946 13.6204 0.380934 13.3804L2.88082 10.8806C3.06747 10.6807 3.28746 10.5607 3.54078 10.5207C3.79411 10.4807 4.02743 10.5073 4.24075 10.6007C4.45407 10.694 4.63407 10.8473 4.78073 11.0606C4.92738 11.2739 5.00071 11.5072 5.00071 11.7606V13.0004H16.2602C16.5935 13.0004 16.8868 12.8805 17.1401 12.6405C17.3935 12.4005 17.5135 12.1072 17.5001 11.7606V6.761C17.5001 6.41436 17.3801 6.12106 17.1401 5.88108C16.9001 5.6411 16.6068 5.51444 16.2602 5.50111H6.26065C5.954 5.50111 5.69401 5.41445 5.48069 5.24113C5.26737 5.06782 5.13404 4.86117 5.08071 4.62119C5.02738 4.38121 5.02738 4.14123 5.08071 3.90125C5.13404 3.66127 5.26737 3.44796 5.48069 3.26131C5.69401 3.07466 5.954 2.988 6.26065 3.00133H16.2602C17.2868 3.00133 18.1668 3.36797 18.9001 4.10124C19.6334 4.8345 20 5.72109 20 6.761V11.7606C20 12.8005 19.6334 13.6804 18.9001 14.4003C18.1668 15.1203 17.2868 15.4869 16.2602 15.5002H5.00071V16.7601C5.00071 17.0268 4.92738 17.2667 4.78073 17.48C4.63407 17.6934 4.44741 17.84 4.22075 17.92C3.9941 18 3.76077 18.02 3.52078 17.98C3.2808 17.94 3.06747 17.8267 2.88082 17.64L0.380934 15.1403C0.11428 14.8869 -0.0123804 14.587 0.000952336 14.2403Z" fill="#61758A"/>
</svg>
