<svg width="20" height="20" viewBox="0 0 20 20" fill="none" xmlns="http://www.w3.org/2000/svg">
<path d="M16.3846 0H7.23077C6.53713 0 5.87189 0.263392 5.38141 0.732233C4.89093 1.20107 4.61538 1.83696 4.61538 2.5C3.92174 2.5 3.25651 2.76339 2.76603 3.23223C2.27555 3.70107 2 4.33696 2 5V17.5C2 18.163 2.27555 18.7989 2.76603 19.2678C3.25651 19.7366 3.92174 20 4.61538 20H13.7692C14.4629 20 15.1281 19.7366 15.6186 19.2678C16.1091 18.7989 16.3846 18.163 16.3846 17.5C17.0783 17.5 17.7435 17.2366 18.234 16.7678C18.7245 16.2989 19 15.663 19 15V2.5C19 1.83696 18.7245 1.20107 18.234 0.732233C17.7435 0.263392 17.0783 0 16.3846 0ZM16.3846 16.25V5C16.3846 4.33696 16.1091 3.70107 15.6186 3.23223C15.1281 2.76339 14.4629 2.5 13.7692 2.5H5.92308C5.92308 2.16848 6.06085 1.85054 6.30609 1.61612C6.55133 1.3817 6.88395 1.25 7.23077 1.25H16.3846C16.7314 1.25 17.0641 1.3817 17.3093 1.61612C17.5545 1.85054 17.6923 2.16848 17.6923 2.5V15C17.6923 15.3315 17.5545 15.6495 17.3093 15.8839C17.0641 16.1183 16.7314 16.25 16.3846 16.25ZM3.30769 5C3.30769 4.66848 3.44547 4.35054 3.69071 4.11612C3.93595 3.8817 4.26856 3.75 4.61538 3.75H13.7692C14.1161 3.75 14.4487 3.8817 14.6939 4.11612C14.9391 4.35054 15.0769 4.66848 15.0769 5V17.5C15.0769 17.8315 14.9391 18.1495 14.6939 18.3839C14.4487 18.6183 14.1161 18.75 13.7692 18.75H4.61538C4.26856 18.75 3.93595 18.6183 3.69071 18.3839C3.44547 18.1495 3.30769 17.8315 3.30769 17.5V5Z" fill="#61758A"/>
</svg>
