<svg width="20" height="22" viewBox="0 0 20 22" fill="none" xmlns="http://www.w3.org/2000/svg">
<path d="M9.40372 22C9.33296 22 9.26219 21.9809 9.19833 21.9427C9.06663 21.864 8.98498 21.716 8.98498 21.5556V16.2973L4.08503 9.43911C3.98893 9.30467 3.97302 9.124 4.04378 8.97289C4.11434 8.82178 4.25986 8.72622 4.41877 8.72622H16.5812C16.7404 8.72622 16.8854 8.82178 16.9562 8.97289C17.027 9.124 17.0111 9.30467 16.915 9.43911L12.015 16.2973V20.1447C12.015 20.3 11.9386 20.4442 11.8134 20.5247L9.62063 21.9356C9.55405 21.9784 9.47889 22 9.40372 22ZM5.26171 9.61489L9.73725 15.8793C9.79253 15.9567 9.82226 16.0507 9.82226 16.1478V20.7664L11.1775 19.8944V16.1478C11.1775 16.0507 11.2075 15.9567 11.2625 15.8793L15.7381 9.61489H5.26171Z" fill="#61758A"/>
<path d="M11.1717 9.61556C10.9786 9.61556 10.8101 9.47533 10.7646 9.27556C10.7228 9.09133 10.7014 8.90178 10.7014 8.712C10.7014 7.39867 11.7081 6.33022 12.9455 6.33022C14.1829 6.33022 15.1895 7.39867 15.1895 8.712C15.1895 8.87378 15.1742 9.03511 15.1439 9.19156C15.1045 9.39533 14.9374 9.54311 14.7413 9.54667L11.1792 9.61533C11.1767 9.61556 11.1742 9.61556 11.1717 9.61556ZM12.9455 7.21911C12.17 7.21911 11.5389 7.88889 11.5389 8.712C11.5389 8.71445 11.5389 8.71689 11.5389 8.71933L14.3514 8.66511C14.328 7.86356 13.7061 7.21911 12.9455 7.21911Z" fill="#61758A"/>
<path d="M8.2616 8.16311C7.27901 8.16311 6.47963 7.31467 6.47963 6.27178C6.47963 5.22889 7.27901 4.38044 8.2616 4.38044C9.24418 4.38044 10.0436 5.22889 10.0436 6.27178C10.0436 7.31467 9.24397 8.16311 8.2616 8.16311ZM8.2616 5.26933C7.74089 5.26933 7.31712 5.71889 7.31712 6.27178C7.31712 6.82467 7.74068 7.27422 8.2616 7.27422C8.78252 7.27422 9.20608 6.82444 9.20608 6.27178C9.20608 5.71911 8.78231 5.26933 8.2616 5.26933Z" fill="#61758A"/>
<path d="M12.7866 5.11111C11.9786 5.11111 11.321 4.41333 11.321 3.55556C11.321 2.69778 11.9786 2 12.7866 2C13.5945 2 14.2522 2.69778 14.2522 3.55556C14.2522 4.41333 13.5945 5.11111 12.7866 5.11111ZM12.7866 2.88889C12.4403 2.88889 12.1584 3.188 12.1584 3.55556C12.1584 3.92311 12.4403 4.22222 12.7866 4.22222C13.1329 4.22222 13.4147 3.92311 13.4147 3.55556C13.4147 3.188 13.1329 2.88889 12.7866 2.88889Z" fill="#61758A"/>
<path d="M10.125 4.06644C9.89387 4.06644 9.70627 3.86733 9.70627 3.622V2.44444C9.70627 2.19911 9.89387 2 10.125 2C10.3562 2 10.5438 2.19911 10.5438 2.44444V3.622C10.5438 3.86756 10.3564 4.06644 10.125 4.06644Z" fill="#61758A"/>
<path d="M15.7825 3.68978C15.5513 3.68978 15.3637 3.49067 15.3637 3.24533V2.49222C15.3637 2.24689 15.5513 2.04778 15.7825 2.04778C16.0136 2.04778 16.2012 2.24689 16.2012 2.49222V3.24511C16.2012 3.49067 16.0138 3.68978 15.7825 3.68978Z" fill="#61758A"/>
<path d="M15.7825 7.04933C15.5513 7.04933 15.3637 6.85022 15.3637 6.60489V4.54867C15.3637 4.30333 15.5513 4.10422 15.7825 4.10422C16.0136 4.10422 16.2012 4.30333 16.2012 4.54867V6.60489C16.2012 6.85022 16.0138 7.04933 15.7825 7.04933Z" fill="#61758A"/>
<path d="M5.21753 7.71867C4.98638 7.71867 4.79878 7.51956 4.79878 7.27422V6.52133C4.79878 6.276 4.98638 6.07689 5.21753 6.07689C5.44868 6.07689 5.63627 6.276 5.63627 6.52133V7.27422C5.63627 7.51978 5.44868 7.71867 5.21753 7.71867Z" fill="#61758A"/>
<path d="M5.21753 5.66244C4.98638 5.66244 4.79878 5.46333 4.79878 5.218V2.49222C4.79878 2.24689 4.98638 2.04778 5.21753 2.04778C5.44868 2.04778 5.63627 2.24689 5.63627 2.49222V5.218C5.63627 5.46333 5.44868 5.66244 5.21753 5.66244Z" fill="#61758A"/>
<path d="M15.1035 11.6831H13.3617C13.1306 11.6831 12.943 11.484 12.943 11.2387C12.943 10.9933 13.1306 10.7942 13.3617 10.7942H15.1035C15.3346 10.7942 15.5222 10.9933 15.5222 11.2387C15.5222 11.484 15.3348 11.6831 15.1035 11.6831Z" fill="#61758A"/>
<path d="M11.8888 11.6831H5.89631C5.66517 11.6831 5.47757 11.484 5.47757 11.2387C5.47757 10.9933 5.66517 10.7942 5.89631 10.7942H11.8888C12.1199 10.7942 12.3075 10.9933 12.3075 11.2387C12.3075 11.484 12.1199 11.6831 11.8888 11.6831Z" fill="#61758A"/>
<path d="M10.5 16.5922H9.40372C9.17258 16.5922 8.98498 16.3931 8.98498 16.1478C8.98498 15.9024 9.17258 15.7033 9.40372 15.7033H10.5C10.7311 15.7033 10.9187 15.9024 10.9187 16.1478C10.9187 16.3931 10.7311 16.5922 10.5 16.5922Z" fill="#61758A"/>
</svg>
