<svg width="20" height="20" viewBox="0 0 20 20" fill="none" xmlns="http://www.w3.org/2000/svg">
<path fill-rule="evenodd" clip-rule="evenodd" d="M0.149352 17.5257C0.331562 17.8205 0.653421 18 1 18H8C8.5523 18 9 17.5523 9 17V3.00009C9 2.53632 8.6811 2.1334 8.2298 2.02685C7.77838 1.92029 7.31298 2.13807 7.10557 2.55288L0.105572 16.5528C-0.0494182 16.8628 -0.0328583 17.2309 0.149352 17.5257ZM2.61804 16L7 7.23612V16H2.61804ZM11 17C11 17.5523 11.4477 18 12 18H19C19.3466 18 19.6684 17.8205 19.8507 17.5257C20.0329 17.2309 20.0494 16.8628 19.8944 16.5528L12.8944 2.55288C12.687 2.13807 12.2216 1.92029 11.7702 2.02685C11.3189 2.1334 11 2.53632 11 3.00009V17Z" fill="#61758A"/>
</svg>
