<svg width="20" height="20" viewBox="0 0 20 20" fill="none" xmlns="http://www.w3.org/2000/svg">
<path fill-rule="evenodd" clip-rule="evenodd" d="M7.63172 0.84797C7.63172 0.379649 7.25207 0 6.78375 0C6.31543 0 5.93578 0.379649 5.93578 0.84797V1.27195C5.93578 1.74027 6.31543 2.11992 6.78375 2.11992C7.25207 2.11992 7.63172 1.74027 7.63172 1.27195V0.84797ZM3.14351 1.9443C2.81235 1.61315 2.27545 1.61315 1.94429 1.9443C1.61314 2.27546 1.61314 2.81236 1.94429 3.14352L2.79226 3.99149C3.12342 4.32264 3.66032 4.32264 3.99148 3.99149C4.32263 3.66033 4.32263 3.12343 3.99148 2.79227L3.14351 1.9443ZM11.6232 3.14352C11.9543 2.81236 11.9543 2.27546 11.6232 1.9443C11.2921 1.61315 10.7551 1.61315 10.424 1.9443L9.57604 2.79227C9.2449 3.12343 9.2449 3.66033 9.57604 3.99149C9.90717 4.32264 10.4441 4.32264 10.7752 3.99149L11.6232 3.14352ZM0.84797 5.93579C0.379649 5.93579 0 6.31544 0 6.78376C0 7.25207 0.379649 7.63173 0.84797 7.63173H1.27195C1.74027 7.63173 2.11992 7.25207 2.11992 6.78376C2.11992 6.31544 1.74027 5.93579 1.27195 5.93579H0.84797ZM12.7195 5.93579C12.2512 5.93579 11.8716 6.31544 11.8716 6.78376C11.8716 7.25207 12.2512 7.63173 12.7195 7.63173H13.1435C13.6119 7.63173 13.9915 7.25207 13.9915 6.78376C13.9915 6.31544 13.6119 5.93579 13.1435 5.93579H12.7195ZM3.99149 10.7752C4.32264 10.4441 4.32264 9.90717 3.99149 9.57604C3.66033 9.2449 3.12343 9.2449 2.79227 9.57604L1.9443 10.424C1.61315 10.7551 1.61315 11.2921 1.9443 11.6232C2.27546 11.9543 2.81236 11.9543 3.14352 11.6232L3.99149 10.7752ZM7.63173 12.7195C7.63173 12.2512 7.25207 11.8716 6.78376 11.8716C6.31544 11.8716 5.93579 12.2512 5.93579 12.7195V13.1435C5.93579 13.6119 6.31544 13.9915 6.78376 13.9915C7.25207 13.9915 7.63173 13.6119 7.63173 13.1435V12.7195ZM7.98296 4.23983C7.32066 3.57753 6.24685 3.57753 5.58455 4.23983L4.23985 5.58453C3.57754 6.24684 3.57754 7.32065 4.23985 7.98296L6.18415 9.92727L15.7602 19.5033C16.4225 20.1656 17.4963 20.1656 18.1586 19.5033L19.5033 18.1586C20.1656 17.4962 20.1656 16.4225 19.5033 15.7602L9.92727 6.18414L7.98296 4.23983ZM5.43906 6.78374L6.78376 5.43905L8.12846 6.78374L6.78376 8.12844L5.43906 6.78374ZM7.98296 9.32767L9.32767 7.98296L18.3041 16.9594L16.9594 18.3041L7.98296 9.32767Z" fill="#61758A"/>
</svg>
