<svg width="20" height="20" viewBox="0 0 20 20" fill="none" xmlns="http://www.w3.org/2000/svg">
<path d="M12.1684 1.3125C11.678 -0.4375 9.322 -0.4375 8.83156 1.3125L8.71281 1.7375C8.63953 1.99949 8.51148 2.2409 8.33803 2.44402C8.16458 2.64713 7.95014 2.80681 7.71044 2.91133C7.47073 3.01585 7.21184 3.06258 6.95275 3.04807C6.69366 3.03356 6.44094 2.9582 6.21312 2.8275L5.845 2.615C4.32144 1.7425 2.65537 3.49625 3.48544 5.09875L3.68613 5.4875C4.21575 6.5125 3.71344 7.78875 2.65062 8.11875L2.24687 8.24375C0.584375 8.76 0.584375 11.24 2.24687 11.7562L2.65062 11.8813C2.89952 11.9584 3.12885 12.0932 3.32181 12.2758C3.51478 12.4583 3.66647 12.6841 3.76576 12.9364C3.86506 13.1887 3.90945 13.4612 3.89567 13.7339C3.88189 14.0067 3.81029 14.2727 3.68613 14.5125L3.48425 14.9C2.65538 16.5037 4.32144 18.2575 5.84381 17.3837L6.21312 17.1725C6.44094 17.0418 6.69366 16.9664 6.95275 16.9519C7.21184 16.9374 7.47073 16.9841 7.71044 17.0887C7.95014 17.1932 8.16458 17.3529 8.33803 17.556C8.51148 17.7591 8.63953 18.0005 8.71281 18.2625L8.83156 18.6875C9.322 20.4375 11.678 20.4375 12.1684 18.6875L12.2872 18.2625C12.3605 18.0005 12.4885 17.7591 12.662 17.556C12.8354 17.3529 13.0499 17.1932 13.2896 17.0887C13.5293 16.9841 13.7882 16.9374 14.0472 16.9519C14.3063 16.9664 14.5591 17.0418 14.7869 17.1725L15.155 17.385C16.6786 18.2575 18.3446 16.5037 17.5146 14.9012L17.3139 14.5125C17.1897 14.2727 17.1181 14.0067 17.1043 13.7339C17.0906 13.4612 17.1349 13.1887 17.2342 12.9364C17.3335 12.6841 17.4852 12.4583 17.6782 12.2758C17.8711 12.0932 18.1005 11.9584 18.3494 11.8813L18.7531 11.7562C20.4156 11.24 20.4156 8.76 18.7531 8.24375L18.3494 8.11875C18.1005 8.04161 17.8711 7.90682 17.6782 7.72424C17.4852 7.54166 17.3335 7.31594 17.2342 7.06362C17.1349 6.8113 17.0906 6.53878 17.1043 6.26606C17.1181 5.99333 17.1897 5.72731 17.3139 5.4875L17.5158 5.1C18.3446 3.49625 16.6786 1.7425 15.1562 2.61625L14.7869 2.8275C14.5591 2.9582 14.3063 3.03356 14.0472 3.04807C13.7882 3.06258 13.5293 3.01585 13.2896 2.91133C13.0499 2.80681 12.8354 2.64713 12.662 2.44402C12.4885 2.2409 12.3605 1.99949 12.2872 1.7375L12.1684 1.3125ZM10.5 13.6625C9.57721 13.6625 8.69222 13.2766 8.03971 12.5898C7.3872 11.9029 7.02063 10.9714 7.02063 10C7.02063 9.02864 7.3872 8.09707 8.03971 7.41022C8.69222 6.72337 9.57721 6.3375 10.5 6.3375C11.4225 6.3375 12.3072 6.72324 12.9594 7.40985C13.6117 8.09647 13.9782 9.02773 13.9782 9.99875C13.9782 10.9698 13.6117 11.901 12.9594 12.5876C12.3072 13.2743 11.4225 13.66 10.5 13.66V13.6625Z" fill="#61758A"/>
</svg>
