<svg width="20" height="20" viewBox="0 0 20 20" fill="none" xmlns="http://www.w3.org/2000/svg">
<path fill-rule="evenodd" clip-rule="evenodd" d="M5.00735 1H7.51103V3.375H12.5184V5.75H11.1014C10.7292 7.73308 9.74649 9.51576 8.34426 10.917C9.34581 11.378 10.4621 11.65 11.6414 11.6839L12.8608 8.125H15.9315L20 20H17.3674L16.5537 17.625H12.2386L11.4249 20H8.79229L10.8431 14.014C9.17146 13.8588 7.61324 13.3367 6.25918 12.5335C4.62549 13.5025 2.69465 14.0625 0.625919 14.0625H0V11.6875H0.625919C1.89791 11.6875 3.10174 11.4106 4.17409 10.917C3.3597 10.1032 2.68681 9.16068 2.19286 8.125H5.03463C5.38319 8.64146 5.79481 9.11592 6.25918 9.53865C7.37011 8.52734 8.17913 7.21985 8.54514 5.75H0V3.375H5.00735V1ZM15.74 15.25L14.3961 11.3275L13.0523 15.25H15.74Z" fill="#61758A"/>
</svg>
