<svg width="39" height="35" viewBox="0 0 39 35" fill="none" xmlns="http://www.w3.org/2000/svg">
<path d="M0 23C0 18.5817 3.58172 15 8 15H21.991V8C21.991 3.58172 25.5727 0 29.991 0H30.9072C35.3255 0 38.9072 3.58172 38.9072 8V27C38.9072 31.4183 35.3255 35 30.9072 35H7.99999C3.58172 35 0 31.4183 0 27V23Z" fill="#E2E6EC"/>
<path d="M31.7858 16.0417H29.4296V18.9434H26.4844V21.2649H29.4296V24.1667H31.7858V21.2649H34.731V18.9434H31.7858V16.0417Z" fill="#DC5757"/>
<path d="M21.3046 21.5361C21.7582 21.4382 22.1385 21.5463 22.4462 21.7754C22.7228 21.9813 22.9268 22.2765 23.0859 22.5176C23.2617 22.7841 23.3965 23.0059 23.5634 23.1982C23.721 23.3797 23.8745 23.4934 24.0517 23.5459C24.2507 23.6048 24.4634 23.5865 24.7197 23.501C24.9892 23.411 25.249 23.2688 25.5654 23.1094C25.8529 22.9645 26.2094 22.7934 26.579 22.75C26.993 22.7014 27.4055 22.8138 27.7636 23.1719C28.1108 23.5192 28.2401 23.916 28.2128 24.3252C28.1881 24.6955 28.0355 25.05 27.8984 25.3418C27.7476 25.6626 27.6082 25.9231 27.5058 26.209C27.4083 26.4813 27.3686 26.7198 27.4042 26.9473C27.43 27.112 27.502 27.2713 27.6161 27.4463C27.7398 27.6358 27.871 27.7874 28.0361 28.0049C28.1832 28.1989 28.3555 28.4447 28.4433 28.7334C28.5384 29.0466 28.5276 29.3843 28.3632 29.7363C28.176 30.137 27.8765 30.3735 27.5136 30.4727C27.1901 30.5609 26.8457 30.531 26.5673 30.4961C26.2543 30.4568 26.011 30.4101 25.7421 30.3965C25.4891 30.3837 25.2839 30.4069 25.1113 30.4824C24.921 30.5659 24.7569 30.7074 24.5927 30.9033C24.4185 31.1112 24.2845 31.3275 24.1005 31.5889C23.9338 31.8256 23.7224 32.1023 23.4384 32.2949C23.1288 32.5049 22.7568 32.5998 22.3173 32.5166C21.8503 32.428 21.5309 32.1784 21.331 31.8359C21.1509 31.5274 21.0803 31.1626 21.0312 30.8613C20.9771 30.5293 20.9462 30.2541 20.872 29.9824C20.8014 29.724 20.7042 29.5267 20.5566 29.3789C20.4133 29.2356 20.2119 29.138 19.9384 29.0674C19.6531 28.9938 19.3636 28.9649 19.0204 28.9121C18.7127 28.8647 18.3352 28.7945 18.0273 28.6074C17.6739 28.3927 17.4448 28.0464 17.4111 27.5596C17.3791 27.0988 17.5366 26.7362 17.8193 26.4678C18.071 26.2287 18.403 26.0856 18.6767 25.9775C18.9815 25.8572 19.2336 25.7731 19.4814 25.6484C19.7166 25.5301 19.8873 25.4013 19.9999 25.2393C20.1294 25.0528 20.1944 24.8102 20.2148 24.4961C20.2358 24.1703 20.207 23.8452 20.1933 23.4678C20.1809 23.1276 20.1786 22.7134 20.3144 22.3564C20.3868 22.1661 20.5016 21.9829 20.6777 21.833C20.853 21.6838 21.0656 21.5878 21.3046 21.5361ZM21.5156 22.5137C21.4074 22.5371 21.3532 22.5709 21.3251 22.5947C21.2979 22.618 21.2719 22.6517 21.2489 22.7119C21.1938 22.8568 21.1805 23.0804 21.1933 23.4316C21.2047 23.7458 21.2373 24.1676 21.2118 24.5606C21.1857 24.9648 21.0962 25.4137 20.8202 25.8106C20.576 26.1616 20.2445 26.3841 19.9306 26.542C19.6294 26.6935 19.2855 26.8119 19.0439 26.9072C18.7709 27.015 18.6051 27.1009 18.5077 27.1934C18.4414 27.2564 18.3979 27.3277 18.4091 27.4902C18.4206 27.6567 18.4739 27.7087 18.5468 27.7529C18.6651 27.8248 18.8578 27.8753 19.1728 27.9238C19.4525 27.9669 19.8386 28.0094 20.1884 28.0996C20.55 28.1929 20.9438 28.3521 21.2636 28.6719C21.5788 28.9871 21.7405 29.3662 21.8368 29.7188C21.9295 30.058 21.9743 30.4289 22.0185 30.7002C22.0677 31.0025 22.1182 31.199 22.1952 31.3311C22.2525 31.4292 22.3267 31.5007 22.5029 31.5342C22.6772 31.5672 22.7817 31.5323 22.8769 31.4678C22.9979 31.3857 23.1205 31.2423 23.2822 31.0127C23.4265 30.8077 23.6161 30.5113 23.8261 30.2607C24.0459 29.9984 24.327 29.735 24.7089 29.5674C25.0799 29.4047 25.4594 29.3807 25.7919 29.3975C26.1087 29.4135 26.4534 29.4741 26.6913 29.5039C26.9637 29.5381 27.1339 29.5394 27.2499 29.5078C27.3267 29.4869 27.3928 29.4507 27.457 29.3135C27.5148 29.1897 27.5112 29.1066 27.4863 29.0244C27.4537 28.9174 27.3782 28.7913 27.2402 28.6094C27.12 28.451 26.9278 28.2208 26.7792 27.9932C26.6212 27.751 26.4715 27.4571 26.4159 27.1025C26.3447 26.6482 26.4358 26.2301 26.5644 25.8711C26.6882 25.5255 26.8701 25.1786 26.9931 24.917C27.1296 24.6265 27.2038 24.423 27.2148 24.2588C27.2231 24.1335 27.1971 24.0196 27.0566 23.8789C26.9267 23.749 26.823 23.7284 26.6962 23.7432C26.5251 23.7632 26.3153 23.8509 26.0156 24.002C25.7444 24.1386 25.3943 24.3297 25.0361 24.4492C24.6648 24.5731 24.231 24.6417 23.7685 24.5049C23.3465 24.3799 23.04 24.1213 22.8075 23.8535C22.5844 23.5964 22.3984 23.2904 22.2519 23.0684C22.0887 22.8211 21.9688 22.666 21.8495 22.5772C21.7613 22.5115 21.6729 22.4797 21.5156 22.5137Z" fill="#00BCFF"/>
</svg>
