<svg width="420" height="74" viewBox="0 0 420 74" fill="none" xmlns="http://www.w3.org/2000/svg">
<mask id="path-1-inside-1_611_846" fill="white">
<path d="M412 2C416.418 2 420 5.58172 420 10V66C420 70.4183 416.418 74 412 74H18C13.5817 74 10 70.4183 10 66V10C10 5.58172 13.5817 2 18 2H412ZM22 10C19.7909 10 18 11.7909 18 14C18 16.2091 19.7909 18 22 18C24.2091 18 26 16.2091 26 14C26 11.7909 24.2091 10 22 10Z"/>
</mask>
<path d="M412 2C416.418 2 420 5.58172 420 10V66C420 70.4183 416.418 74 412 74H18C13.5817 74 10 70.4183 10 66V10C10 5.58172 13.5817 2 18 2H412ZM22 10C19.7909 10 18 11.7909 18 14C18 16.2091 19.7909 18 22 18C24.2091 18 26 16.2091 26 14C26 11.7909 24.2091 10 22 10Z" fill="white"/>
<path d="M420 10L421 10L420 10ZM412 74L412 75L412 74ZM10 66L9 66L10 66ZM18 2L18 1L18 2ZM412 2V3C415.866 3 419 6.13401 419 10L420 10L421 10C421 5.02944 416.971 1 412 1V2ZM420 10H419V66H420H421V10H420ZM420 66H419C419 69.866 415.866 73 412 73L412 74L412 75C416.971 75 421 70.9706 421 66H420ZM412 74V73H18V74V75H412V74ZM18 74V73C14.134 73 11 69.866 11 66L10 66L9 66C9 70.9706 13.0294 75 18 75V74ZM10 66H11V10H10H9V66H10ZM10 10H11C11 6.13401 14.134 3 18 3L18 2L18 1C13.0294 1 9 5.02944 9 10H10ZM18 2V3H412V2V1H18V2ZM22 10V9C19.2386 9 17 11.2386 17 14H18H19C19 12.3431 20.3431 11 22 11V10ZM18 14H17C17 16.7614 19.2386 19 22 19V18V17C20.3431 17 19 15.6569 19 14H18ZM22 18V19C24.7614 19 27 16.7614 27 14H26H25C25 15.6569 23.6569 17 22 17V18ZM26 14H27C27 11.2386 24.7614 9 22 9V10V11C23.6569 11 25 12.3431 25 14H26Z" fill="#2D4053" mask="url(#path-1-inside-1_611_846)"/>
<mask id="path-3-inside-2_611_846" fill="white">
<path d="M410 0C414.418 0 418 3.58172 418 8V64C418 68.4183 414.418 72 410 72H16C11.5817 72 8 68.4183 8 64V8C8 3.58172 11.5817 4.02662e-09 16 0H410ZM20 8C17.7909 8 16 9.79086 16 12C16 14.2091 17.7909 16 20 16C22.2091 16 24 14.2091 24 12C24 9.79086 22.2091 8 20 8Z"/>
</mask>
<path d="M410 0C414.418 0 418 3.58172 418 8V64C418 68.4183 414.418 72 410 72H16C11.5817 72 8 68.4183 8 64V8C8 3.58172 11.5817 4.02662e-09 16 0H410ZM20 8C17.7909 8 16 9.79086 16 12C16 14.2091 17.7909 16 20 16C22.2091 16 24 14.2091 24 12C24 9.79086 22.2091 8 20 8Z" fill="white"/>
<path d="M418 8L419 8L418 8ZM410 72L410 73L410 72ZM8 64L7 64L8 64ZM16 0L16 -1L16 0ZM410 0V1C413.866 1 417 4.13401 417 8L418 8L419 8C419 3.02944 414.971 -1 410 -1V0ZM418 8H417V64H418H419V8H418ZM418 64H417C417 67.866 413.866 71 410 71L410 72L410 73C414.971 73 419 68.9706 419 64H418ZM410 72V71H16V72V73H410V72ZM16 72V71C12.134 71 9 67.866 9 64L8 64L7 64C7 68.9706 11.0294 73 16 73V72ZM8 64H9V8H8H7V64H8ZM8 8H9C9 4.13401 12.134 1 16 1L16 0L16 -1C11.0294 -1 7 3.02944 7 8H8ZM16 0V1H410V0V-1H16V0ZM20 8V7C17.2386 7 15 9.23858 15 12H16H17C17 10.3431 18.3431 9 20 9V8ZM16 12H15C15 14.7614 17.2386 17 20 17V16V15C18.3431 15 17 13.6569 17 12H16ZM20 16V17C22.7614 17 25 14.7614 25 12H24H23C23 13.6569 21.6569 15 20 15V16ZM24 12H25C25 9.23858 22.7614 7 20 7V8V9C21.6569 9 23 10.3431 23 12H24Z" fill="#2D4053" mask="url(#path-3-inside-2_611_846)"/>
<path d="M38 24H388M38 48H388" stroke="#DC5757"/>
<path d="M7.5 13V16.5L5.24853 20.6652C5.08319 20.9711 4.94603 21.2914 4.83876 21.6221L4.69198 22.0747C3.98701 24.2484 4.81349 26.6257 6.71482 27.8932C7.55282 28.4519 8.53744 28.75 9.54459 28.75H10.1373C12.811 28.75 15.2553 27.2394 16.4511 24.8479L16.5689 24.6123C17.1781 23.3939 17.4432 22.0324 17.3358 20.6744L16.8077 14L17.0039 13.8771C18.4132 12.9941 20.2648 13.8536 20.5 15.5L21.1381 20.4452C21.3737 22.2711 21.0437 24.1252 20.1926 25.7577L19.3307 27.4108C17.7801 30.3849 14.7043 32.25 11.3502 32.25H9.54763C7.79219 32.25 6.08218 31.692 4.66455 30.6567C1.86215 28.61 0.633481 25.0328 1.58682 21.6961L1.66674 21.4164C1.88784 20.6425 2.2153 19.9031 2.63973 19.2193L3.83265 17.2974C4.11035 16.85 4.42677 16.4278 4.77829 16.0358L7.5 13Z" fill="#E2E6EC" stroke="#E2E6EC"/>
</svg>
