<svg width="12" height="10" viewBox="0 0 12 10" fill="none" xmlns="http://www.w3.org/2000/svg">
<path fill-rule="evenodd" clip-rule="evenodd" d="M0.0838737 8.96127C0.1862 9.13143 0.366952 9.23503 0.561586 9.23503H4.49268C4.80285 9.23503 5.05427 8.97662 5.05427 8.65785V0.577243C5.05427 0.309556 4.87518 0.0769969 4.62174 0.0154979C4.36823 -0.046007 4.10686 0.0796924 3.99039 0.319115L0.0592876 8.39973C-0.0277525 8.57866 -0.0184528 8.79112 0.0838737 8.96127ZM1.47025 8.08066L3.9311 3.02223V8.08066H1.47025ZM6.17744 8.65785C6.17744 8.97662 6.42886 9.23503 6.73903 9.23503H10.6701C10.8648 9.23503 11.0455 9.13143 11.1479 8.96127C11.2502 8.79112 11.2595 8.57866 11.1724 8.39973L7.24131 0.319115C7.12484 0.0796924 6.86347 -0.046007 6.60997 0.0154979C6.35653 0.0769969 6.17744 0.309556 6.17744 0.577243V8.65785Z" fill="#61758A"/>
</svg>
